<?xml version="1.0" encoding="UTF-8" standalone="no"?>
<!-- Creator: CorelDRAW -->

<svg
   xmlns:dc="http://purl.org/dc/elements/1.1/"
   xmlns:cc="http://creativecommons.org/ns#"
   xmlns:rdf="http://www.w3.org/1999/02/22-rdf-syntax-ns#"
   xmlns:svg="http://www.w3.org/2000/svg"
   xmlns="http://www.w3.org/2000/svg"
   xmlns:sodipodi="http://sodipodi.sourceforge.net/DTD/sodipodi-0.dtd"
   xmlns:inkscape="http://www.inkscape.org/namespaces/inkscape"
   xml:space="preserve"
   width="1054.1mm"
   height="622.3mm"
   style="shape-rendering:geometricPrecision; text-rendering:geometricPrecision; image-rendering:optimizeQuality; fill-rule:evenodd; clip-rule:evenodd"
   viewBox="0 0 1054.1 622.3"
   sodipodi:role="line"
   sodipodi:version="0.32"
   inkscape:version="0.48.3.1 r9886"
   sodipodi:docname="Cyrillic_letter_Yat.svg"
   inkscape:output_extension="org.inkscape.output.svg.inkscape"
   version="1.0"
   id="svg2985"><metadata
   id="metadata3012"><rdf:RDF><cc:Work
       rdf:about=""><dc:format>image/svg+xml</dc:format><dc:type
         rdf:resource="http://purl.org/dc/dcmitype/StillImage" /><dc:title></dc:title></cc:Work></rdf:RDF></metadata><sodipodi:namedview
   pagecolor="#ffffff"
   bordercolor="#666666"
   borderopacity="1"
   objecttolerance="10"
   gridtolerance="10"
   guidetolerance="10"
   inkscape:pageopacity="0"
   inkscape:pageshadow="2"
   inkscape:window-width="1366"
   inkscape:window-height="744"
   id="namedview3010"
   showgrid="false"
   inkscape:zoom="0.25623583"
   inkscape:cx="1867.5"
   inkscape:cy="1102.5"
   inkscape:window-x="0"
   inkscape:window-y="24"
   inkscape:window-maximized="1"
   inkscape:current-layer="Layer_x0020_1" />
 <defs
   id="defs2987">
  <style
   type="text/css"
   id="style2989">
   
    .str0 {stroke:#B3B3B3;stroke-width:3.9687;stroke-linecap:round;stroke-linejoin:round}
    .fil0 {fill:#C0A062}
    .fil1 {fill:#0A0B0C;fill-rule:nonzero}
   
  </style>
 </defs>
 <g
   id="Layer_x0020_1">
  <metadata
   id="CorelCorpID_0Corel-Layer" />
  <!--path id="path3164" class="fil0 str0" d="M-0.1346 24.3175l1053.4 0m-1053.4 574.191l1053.4 0m-1053.4 -458.454l1053.4 0m-1053.4 345.555l1053.4 0m-1053.4 -362.569l1053.4 0m-1053.4 0l0 0 0 0z"/-->
  <sodipodi:namedview
   inkscape:window-height="1005"
   inkscape:window-width="1280"
   inkscape:pageshadow="2"
   inkscape:pageopacity="0.0"
   guidetolerance="10.0"
   gridtolerance="10.0"
   objecttolerance="10.0"
   borderopacity="1.0"
   bordercolor="#666666"
   pagecolor="#ffffff"
   id="base"
   inkscape:zoom="0.09973684"
   inkscape:cx="2328.5853"
   inkscape:cy="1773.8148"
   inkscape:window-x="-4"
   inkscape:window-y="-4"
   inkscape:current-layer="svg2"
   width="4000px"
   height="2300px"
   inkscape:showpageshadow="false" />
  <sodipodi:namedview
   inkscape:window-height="1005"
   inkscape:window-width="1280"
   inkscape:pageshadow="2"
   inkscape:pageopacity="0.0"
   guidetolerance="10.0"
   gridtolerance="10.0"
   objecttolerance="10.0"
   borderopacity="1.0"
   bordercolor="#666666"
   pagecolor="#ffffff"
   id="namedview2994"
   inkscape:zoom="0.09973684"
   inkscape:cx="2328.5853"
   inkscape:cy="1773.8148"
   inkscape:window-x="-4"
   inkscape:window-y="-4"
   inkscape:current-layer="svg2"
   width="4000px"
   height="2300px"
   inkscape:showpageshadow="false" />
  <sodipodi:namedview
   inkscape:window-height="1005"
   inkscape:window-width="1280"
   inkscape:pageshadow="2"
   inkscape:pageopacity="0.0"
   guidetolerance="10.0"
   gridtolerance="10.0"
   objecttolerance="10.0"
   borderopacity="1.0"
   bordercolor="#666666"
   pagecolor="#ffffff"
   id="namedview2996"
   inkscape:zoom="0.09973684"
   inkscape:cx="2328.5853"
   inkscape:cy="1773.8148"
   inkscape:window-x="-4"
   inkscape:window-y="-4"
   inkscape:current-layer="svg2"
   width="4000px"
   height="2300px"
   inkscape:showpageshadow="false" />
  <sodipodi:namedview
   inkscape:window-height="1005"
   inkscape:window-width="1280"
   inkscape:pageshadow="2"
   inkscape:pageopacity="0.0"
   guidetolerance="10.0"
   gridtolerance="10.0"
   objecttolerance="10.0"
   borderopacity="1.0"
   bordercolor="#666666"
   pagecolor="#ffffff"
   id="namedview2998"
   inkscape:zoom="0.09973684"
   inkscape:cx="2328.5853"
   inkscape:cy="1773.8148"
   inkscape:window-x="-4"
   inkscape:window-y="-4"
   inkscape:current-layer="svg2"
   width="4000px"
   height="2300px"
   inkscape:showpageshadow="false" />
  <sodipodi:namedview
   inkscape:window-height="1005"
   inkscape:window-width="1280"
   inkscape:pageshadow="2"
   inkscape:pageopacity="0.0"
   guidetolerance="10.0"
   gridtolerance="10.0"
   objecttolerance="10.0"
   borderopacity="1.0"
   bordercolor="#666666"
   pagecolor="#ffffff"
   id="namedview3000"
   inkscape:zoom="0.09973684"
   inkscape:cx="2328.5853"
   inkscape:cy="1773.8148"
   inkscape:window-x="-4"
   inkscape:window-y="-4"
   inkscape:current-layer="svg2"
   width="4000px"
   height="2300px"
   inkscape:showpageshadow="false" />
  <sodipodi:namedview
   inkscape:window-height="1005"
   inkscape:window-width="1280"
   inkscape:pageshadow="2"
   inkscape:pageopacity="0.0"
   guidetolerance="10.0"
   gridtolerance="10.0"
   objecttolerance="10.0"
   borderopacity="1.0"
   bordercolor="#666666"
   pagecolor="#ffffff"
   id="namedview3002"
   inkscape:zoom="0.09973684"
   inkscape:cx="2328.5853"
   inkscape:cy="1773.8148"
   inkscape:window-x="-4"
   inkscape:window-y="-4"
   inkscape:current-layer="svg2"
   width="4000px"
   height="2300px"
   inkscape:showpageshadow="false" />
  <sodipodi:namedview
   inkscape:window-height="1005"
   inkscape:window-width="1280"
   inkscape:pageshadow="2"
   inkscape:pageopacity="0.0"
   guidetolerance="10.0"
   gridtolerance="10.0"
   objecttolerance="10.0"
   borderopacity="1.0"
   bordercolor="#666666"
   pagecolor="#ffffff"
   id="namedview3004"
   inkscape:zoom="0.09973684"
   inkscape:cx="2328.5853"
   inkscape:cy="1773.8148"
   inkscape:window-x="-4"
   inkscape:window-y="-4"
   inkscape:current-layer="svg2"
   width="4000px"
   height="2300px"
   inkscape:showpageshadow="false" />
  <sodipodi:namedview
   inkscape:window-height="1005"
   inkscape:window-width="1280"
   inkscape:pageshadow="2"
   inkscape:pageopacity="0.0"
   guidetolerance="10.0"
   gridtolerance="10.0"
   objecttolerance="10.0"
   borderopacity="1.0"
   bordercolor="#666666"
   pagecolor="#ffffff"
   id="namedview3006"
   inkscape:zoom="0.09973684"
   inkscape:cx="2328.5853"
   inkscape:cy="1773.8148"
   inkscape:window-x="-4"
   inkscape:window-y="-4"
   inkscape:current-layer="svg2"
   width="4000px"
   height="2300px"
   inkscape:showpageshadow="false" />
  <path
   class="fil1"
   d="m 375.133,202.88 -0.004,91.998 14.023,0 c 42.8625,0 74.3479,2.734 94.5444,8.2021 20.1083,5.3799 36.5125,15.7868 49.2125,31.1326 12.7,15.3459 18.9618,33.7785 18.9618,55.298 0,26.0173 -9.6132,48.7715 -28.9278,68.4389 -19.3145,19.6673 -52.5639,29.4569 -99.7479,29.4569 l -148.255,0 0,-9.525 c 21.6958,-0.7056 35.4975,-4.1885 41.5395,-10.4069 6.0408,-6.2173 9.0838,-20.8141 9.0841,-43.9209 l 0.004,-220.674 -42.157,0 c -16.3159,0 -27.9778,1.1772 -34.8368,3.6159 -9.0164,3.2058 -16.6687,9.6132 -23.0187,18.8737 -6.35,9.3486 -10.1424,21.8722 -11.3771,37.7472 l -9.7896,0 4.1451,-82.1972 116.066,1e-4 c -1.3259,-11.8287 -4.042,-19.8044 -8.1201,-23.9778 -6.0153,-6.1557 -19.8437,-9.6132 -41.5395,-10.3187 l 0,-9.6132 150.901,0 0,9.6132 c -21.6959,0.7055 -35.6306,4.1452 -41.6278,10.3187 -4.0375,4.1563 -6.7553,12.1461 -8.1008,23.9777 l 117.607,0 3.8806,82.1972 -9.8778,0 c -1.8521,-14.4639 -4.4224,-24.776 -7.7611,-31.0445 -5.3043,-9.9591 -12.4256,-17.3045 -21.2549,-22.0486 -8.8977,-4.7808 -20.5494,-7.1437 -35.0132,-7.1437 l -48.5603,0 z m -0.004,263.624 c 15.1695,2.3813 26.9875,3.616 35.4542,3.616 21.1667,0 40.3049,-7.0556 57.5028,-21.2549 17.1097,-14.1111 25.6646,-33.6021 25.6646,-58.6493 0,-25.841 -8.9077,-44.9791 -26.8993,-57.4146 -17.9035,-12.5236 -40.5695,-18.7854 -68.1743,-18.7854 -7.7611,0 -15.6105,0.7056 -23.548,2.1167 l 0,150.372 z"
   id="path3008"
   inkscape:connector-curvature="0"
   style="fill:#0a0b0c;fill-rule:nonzero"
   sodipodi:nodetypes="ccscssssccsscsscccccsccccsccccssscccscscsccc"
   inkscape:export-xdpi="3.4794838"
   inkscape:export-ydpi="3.4794838" />
 <path
   style="fill:#800000"
   d="m 976.13363,1711.595 0,-15.3298 22.44026,-2.2753 c 96.36421,-9.7707 129.97111,-27.0049 143.18941,-73.4299 12.7093,-44.6377 13.8925,-86.8854 13.8925,-496.082 l 0,-409.47013 -114.1527,2.22487 c -62.78396,1.22367 -124.61921,4.26917 -137.41167,6.76777 -77.51346,15.1398 -131.47505,84.66344 -144.59408,186.29374 l -2.64483,20.48894 -15.7791,0 -15.77909,0 2.38775,-36.09956 c 1.31326,-19.85476 4.26092,-77.37013 6.55036,-127.81195 2.28943,-50.44181 5.07556,-99.17622 6.19138,-108.29867 l 2.02877,-16.58628 204.65025,0 c 161.14916,0 204.63796,-1.03696 204.59256,-4.87832 -0.1549,-13.09259 -12.8141,-56.62091 -20.3843,-70.09018 -14.5352,-25.86187 -53.7544,-40.09781 -132.73721,-48.18142 l -22.44026,-2.29668 0,-15.3298 0,-15.3298 265.38057,0 265.3805,0 0,15.3298 0,15.3298 -22.4403,2.29668 c -67.9049,6.94983 -107.9314,18.94587 -125.2533,37.53871 -10.1743,10.92081 -22.0334,41.86628 -25.7044,67.0736 l -2.6997,18.53761 209.0311,0 209.0312,0 0.067,20.48893 c 0.035,11.26892 2.641,70.54049 5.7874,131.71461 7.8065,151.77959 8.8292,136.59292 -9.1983,136.59292 l -15.0522,0 -8.1545,-41.64114 c -13.7473,-70.20073 -43.3349,-116.3963 -91.9706,-143.59492 -41.7778,-23.36348 -61.1946,-26.27823 -188.8126,-28.34356 l -114.1526,-1.84741 0,165.6887 0,165.68864 114.1526,2.2865 c 234.4681,4.6963 329.1154,28.5614 413.7517,104.3263 42.472,38.0202 77.5341,98.1815 90.2256,154.8135 8.0708,36.0138 8.1235,101.8867 0.1128,140.8654 -22.1515,107.7823 -101.1068,201.0063 -202.1742,238.7105 -91.9728,34.3114 -153.7654,39.0082 -514.6104,39.1146 l -252.69707,0.074 0,-15.3298 z m 559.44627,-54.7279 c 59.8001,-15.3735 128.8651,-60.2594 163.362,-106.1705 36.7483,-48.9073 50.4751,-94.3033 50.5596,-167.2054 0.1223,-105.5237 -35.2335,-172.4273 -115.8497,-219.2219 -62.3992,-36.2203 -123.9585,-51.1865 -212.6155,-51.6908 -31.1237,-0.1772 -64.9304,1.1029 -75.1261,2.8442 l -18.5376,3.1662 0,268.5776 0,268.5777 45.8562,4.6693 c 25.2209,2.5681 49.3685,5.2913 53.6615,6.0517 18.0652,3.1995 80.2798,-2.2945 108.6896,-9.5981 l 0,0 z"
   id="path3014"
   inkscape:connector-curvature="0"
   transform="scale(0.28222222,0.28222222)"
   inkscape:export-xdpi="5.2192259"
   inkscape:export-ydpi="5.2192259" /></g>
</svg>